Coordinates
version=1
nRows=17
nColumns=24
inDegrees=yes

Units are S.I. units (second, meters, Newtons, ...)
Angles are in degrees.

endheader
time	pelvis_tilt	pelvis_list	pelvis_rotation	pelvis_tx	pelvis_ty	pelvis_tz	hip_flexion_r	hip_adduction_r	hip_rotation_r	knee_angle_r	ankle_angle_r	subtalar_angle_r	mtp_angle_r	hip_flexion_l	hip_adduction_l	hip_rotation_l	knee_angle_l	ankle_angle_l	subtalar_angle_l	mtp_angle_l	lumbar_extension	lumbar_bending	lumbar_rotation
      0.80433333	     -3.25541046	     -2.32813368	      0.10496553	     -0.34056466	      0.99513528	      0.33121562	     16.08676569	      5.97965843	      0.48459930	    -23.92485048	     12.08038832	    -10.81584388	      2.35647895	     15.57928131	     -3.81321490	     -2.71999122	    -71.22564920	     -7.39163168	     -7.27068530	      7.36739038	     -9.85919455	      9.45313592	     -1.47427993
      0.80850000	     -3.21666532	     -2.22083554	      0.07840678	     -0.33539508	      0.99623333	      0.33156649	     15.49937929	      5.92208795	      0.67081699	    -23.48166517	     12.08247540	    -10.93340470	      1.88053840	     16.15567250	     -3.79632970	     -2.86657268	    -71.25282204	     -6.86970738	     -7.64450343	      4.37148470	     -9.92887008	      9.24214268	     -1.17842634
      0.81266667	     -3.14522709	     -2.07296206	      0.07598867	     -0.33025078	      0.99735099	      0.33183847	     14.89627232	      5.80167628	      0.78655665	    -23.08007692	     12.13126043	    -11.00241928	      1.87163554	     16.68792525	     -3.71291675	     -2.98649559	    -71.20869462	     -6.44220415	     -8.13290845	      4.35769135	    -10.05021028	      8.98292179	     -0.95381650
      0.81683333	     -3.04935857	     -1.93801698	      0.04518032	     -0.32501873	      0.99854451	      0.33216536	     14.22099773	      5.70785436	      0.96584736	    -22.58620903	     12.13168157	    -11.14118421	      1.85294344	     17.16156740	     -3.65963101	     -3.14560477	    -71.08009232	     -6.08479367	     -8.59282309	      4.31319972	    -10.17385835	      8.72319130	     -0.54872976
      0.82100000	     -3.01608517	     -1.79897649	      0.01496265	     -0.31986168	      0.99956171	      0.33246774	     13.64835881	      5.60066270	      1.11012133	    -22.15923912	     12.13794391	    -11.20608730	      1.83948432	     17.70972828	     -3.59389151	     -3.29359225	    -70.93709584	     -5.62240522	     -9.02160955	      4.27867783	    -10.24561242	      8.48135892	     -0.32524427
      0.82516667	     -2.91318509	     -1.64366415	     -0.02337689	     -0.31461647	      1.00073184	      0.33277298	     12.95777145	      5.47897126	      1.28684583	    -21.64850649	     12.13458935	    -11.34709434	      1.81431808	     18.14626114	     -3.51236751	     -3.46138549	    -70.69056526	     -5.26741800	     -9.44077195	      4.19982333	    -10.36920289	      8.19880143	      0.07025199
      0.82933333	     -2.83115515	     -1.49801067	     -0.06130616	     -0.30940813	      1.00181196	      0.33305409	     12.30291181	      5.36013298	      1.44050934	    -21.15962787	     12.12306776	    -11.44352571	      1.78664209	     18.60370490	     -3.43705327	     -3.62105893	    -70.41574493	     -4.84875244	     -9.82672996	      4.10658693	    -10.48285303	      7.94006977	      0.38379711
      0.83350000	     -2.77044823	     -1.33648115	     -0.09865567	     -0.30422913	      1.00281271	      0.33331061	     11.68660465	      5.21765938	      1.57278093	    -20.70084448	     12.11080605	    -11.49735676	      1.76378476	     19.07638845	     -3.33500555	     -3.77382830	    -70.09725850	     -4.39287731	    -10.19399217	      4.02918769	    -10.58130103	      7.67120329	      0.60767912
      0.83766667	     -2.69454254	     -1.17437382	     -0.13654113	     -0.29898990	      1.00382821	      0.33356048	     11.03092435	      5.07234568	      1.70767666	    -20.19771641	     12.12144926	    -11.58806025	      1.73033862	     19.50825914	     -3.23341466	     -3.93056787	    -69.70518886	     -4.00319496	    -10.52600747	      3.90684154	    -10.66417228	      7.40002659	      0.93984202
      0.84183333	     -2.62852615	     -1.01350006	     -0.17401855	     -0.29377521	      1.00479272	      0.33378519	     10.39305458	      4.92281989	      1.82818098	    -19.70376884	     12.11282087	    -11.65237237	      1.69158923	     19.94251509	     -3.12532113	     -4.07729412	    -69.27196391	     -3.57011653	    -10.82081033	      3.76133080	    -10.75234342	      7.13471025	      1.22056104
      0.84600000	     -2.56669707	     -0.88200274	     -0.21254806	     -0.28857165	      1.00569260	      0.33400042	      9.75524924	      4.80367879	      1.95342203	    -19.19533745	     12.08611998	    -11.71631244	      1.61692770	     20.37502357	     -3.04813268	     -4.21494690	    -68.80821669	     -3.10071204	    -11.08383219	      3.47084291	    -10.83985016	      6.91087666	      1.53820729
      0.85016667	     -2.55382795	     -0.69049789	     -0.23517468	     -0.28336603	      1.00650627	      0.33413797	      9.19749522	      4.60273515	      1.99898987	    -18.74639166	     12.08488579	    -11.71111620	      1.59903931	     20.84179424	     -2.88474441	     -4.33854786	    -68.27155559	     -2.64700014	    -11.30716228	      3.41258987	    -10.83595881	      6.63923140	      1.60816517
      0.85433333	     -2.44386653	     -0.53178017	     -0.25834123	     -0.27815514	      1.00742390	      0.33430123	      8.50029799	      4.44434811	      2.09468733	    -18.22031711	     12.09341691	    -11.77009123	      1.55590834	     21.18617779	     -2.75857981	     -4.45145206	    -67.67887225	     -2.25243478	    -11.50707499	      3.25527073	    -10.98079210	      6.36881462	      1.90378386
      0.85850000	     -2.43893287	     -0.36691202	     -0.28030190	     -0.27297334	      1.00812829	      0.33440121	      7.94874961	      4.26913128	      2.14917212	    -17.75760235	     12.06521227	    -11.77323654	      1.52811117	     21.63873865	     -2.60766501	     -4.54139048	    -67.05458543	     -1.78906452	    -11.66500369	      3.16201892	    -10.99299326	      6.14630269	      2.05642405
      0.86266667	     -2.34671238	     -0.22291904	     -0.29537705	     -0.26776636	      1.00891937	      0.33453763	      7.27432440	      4.11951075	      2.20952595	    -17.23406302	     12.07374599	    -11.81946758	      1.48195461	     21.98052049	     -2.49219991	     -4.63977110	    -66.37975462	     -1.37166050	    -11.77398610	      2.99608673	    -11.10582206	      5.88895094	      2.31099464
      0.86683333	     -2.34467987	     -0.06129100	     -0.31061310	     -0.26258371	      1.00953881	      0.33458533	      6.72742488	      3.94003916	      2.23791900	    -16.76996207	     12.04450487	    -11.81642212	      1.44989591	     22.40611657	     -2.32982928	     -4.70722766	    -65.65460455	     -0.93086657	    -11.86405827	      2.88797852	    -11.10247659	      5.68089122	      2.45480141
      0.87100000	     -2.34591743	      0.07598591	     -0.31295640	     -0.25741070	      1.01009183	      0.33464298	      6.18012529	      3.78647694	      2.23929051	    -16.29268529	     12.02371008	    -11.79545869	      1.42707483	     22.83143543	     -2.19739796	     -4.76773234	    -64.90006607	     -0.50130859	    -11.93928026	      2.81541175	    -11.10273688	      5.44751070	      2.57196131
